<svg xmlns="http://www.w3.org/2000/svg" viewBox="-36.92 -135.34 256.73 256.73" role="img" aria-label="upstroke"><defs><linearGradient id="mk1" gradientUnits="userSpaceOnUse" x1="0" y1="100" x2="0" y2="-100"><stop offset="0" stop-color="#1f3fbd"/><stop offset="0.3" stop-color="#1f3fbd"/><stop offset="0.72" stop-color="#6b2fd6"/><stop offset="1" stop-color="#6b2fd6"/></linearGradient></defs><g><g fill="url(#mk1)"><path d="M 77 -2.06 L 77 -20 A 31 31 0 0 1 88.07 -43.75 L 147.83 -93.88 A 11 11 0 0 1 161.97 -77.03 L 102.21 -26.89 A 9 9 0 0 0 99 -20 L 99 -2.06 A 15.6 15.6 0 0 0 77 -2.06 Z"/></g><g fill="none" stroke="url(#mk1)" stroke-width="22" stroke-linecap="round" stroke-linejoin="round"><path d="M 115.05 -88.94 L 154.9 -85.46 L 151.41 -45.61"/></g><g fill="none" stroke="url(#mk1)" stroke-width="22" stroke-linecap="round" stroke-linejoin="round"><path d="M 12 9 L 12 50 A 38.0 38.0 0 0 0 88 50 L 88 9"/></g></g></svg>